<?xml version="1.0" standalone="no"?>
<!DOCTYPE svg PUBLIC "-//W3C//DTD SVG 20010904//EN"
 "http://www.w3.org/TR/2001/REC-SVG-20010904/DTD/svg10.dtd">
<svg version="1.0" xmlns="http://www.w3.org/2000/svg"
 width="189.000000pt" height="189.000000pt" viewBox="0 0 189.000000 189.000000"
 preserveAspectRatio="xMidYMid meet">
<metadata>
Created by potrace 1.14, written by Peter Selinger 2001-2017
</metadata>
<g transform="translate(0.000000,189.000000) scale(0.100000,-0.100000)"
fill="#000000" stroke="none">
<path d="M347 1883 c-12 -11 -7 -83 10 -154 16 -66 31 -91 117 -189 12 -14 48
-59 81 -100 32 -41 92 -109 132 -150 69 -72 72 -77 66 -110 -14 -68 -8 -183
11 -237 18 -48 18 -54 4 -70 -26 -29 -57 -99 -74 -162 -20 -79 -20 -157 -1
-266 9 -49 19 -108 23 -130 3 -22 17 -74 31 -115 14 -41 25 -86 24 -100 -1
-28 -38 -63 -58 -56 -18 7 -43 -4 -43 -19 0 -8 17 -16 43 -20 51 -8 107 12
150 52 31 31 33 53 12 114 -29 81 -59 253 -69 387 -7 98 37 262 75 283 24 12
25 -1 4 -41 -32 -61 4 -164 68 -201 46 -26 139 -34 187 -17 46 15 90 72 90
114 0 45 -28 93 -57 100 -37 10 -53 -2 -52 -38 2 -46 -16 -85 -42 -93 -24 -8
-40 5 -62 48 -32 62 6 164 57 152 12 -3 28 -1 36 5 24 15 -10 41 -57 43 -59 2
-46 30 30 60 246 99 371 186 431 301 33 61 33 76 1 76 -18 0 -35 -14 -62 -48
-60 -76 -157 -149 -277 -207 -155 -75 -158 -76 -174 -24 -7 24 -36 72 -64 107
-58 72 -58 55 -4 236 43 144 85 234 163 349 54 81 69 109 58 113 -31 12 -132
-76 -210 -184 -43 -60 -97 -177 -124 -270 -12 -39 -24 -72 -26 -72 -5 0 -22
17 -95 101 -36 41 -112 124 -170 184 -99 103 -114 125 -150 223 -12 32 -21 38
-33 25z m538 -814 c35 -67 36 -75 5 -98 l-29 -21 -12 21 c-13 24 -2 142 12
133 5 -3 16 -18 24 -35z"/>
</g>
</svg>
